<svg width="186" height="60" viewBox="0 0 186 60" fill="none" xmlns="http://www.w3.org/2000/svg">
<path d="M38.7001 7.4H43.5001C44.2734 7.4 44.9801 7.53333 45.6201 7.8C46.2734 8.06667 46.8334 8.43333 47.3001 8.9C47.7667 9.35333 48.1267 9.89333 48.3801 10.52C48.6467 11.1333 48.7801 11.8 48.7801 12.52C48.7801 13.24 48.6467 13.9133 48.3801 14.54C48.1267 15.1533 47.7667 15.6933 47.3001 16.16C46.8334 16.6133 46.2734 16.9733 45.6201 17.24C44.9667 17.5067 44.2534 17.64 43.4801 17.64H40.8801V22H38.7001V7.4ZM40.8801 9.4V15.62H43.3401C43.8334 15.62 44.2801 15.54 44.6801 15.38C45.0934 15.22 45.4401 15 45.7201 14.72C46.0001 14.44 46.2134 14.1133 46.3601 13.74C46.5201 13.3667 46.6001 12.96 46.6001 12.52C46.6001 12.08 46.5201 11.6733 46.3601 11.3C46.2134 10.9133 46.0001 10.58 45.7201 10.3C45.4401 10.02 45.0934 9.8 44.6801 9.64C44.2801 9.48 43.8334 9.4 43.3401 9.4H40.8801ZM54.744 22.2C54.104 22.2 53.484 22.08 52.884 21.84C52.2973 21.5867 51.7707 21.24 51.304 20.8C50.8373 20.3467 50.464 19.8 50.184 19.16C49.904 18.52 49.764 17.8 49.764 17C49.764 16.2 49.8973 15.48 50.164 14.84C50.444 14.2 50.8107 13.6533 51.264 13.2C51.7307 12.7467 52.264 12.4 52.864 12.16C53.4773 11.92 54.1107 11.8 54.764 11.8C55.4307 11.8 56.0573 11.9333 56.644 12.2C57.2307 12.4667 57.7107 12.8333 58.084 13.3V12H60.224V22H58.084V20.62C57.6973 21.1133 57.2107 21.5 56.624 21.78C56.0373 22.06 55.4107 22.2 54.744 22.2ZM55.044 20.24C55.4973 20.24 55.9173 20.1533 56.304 19.98C56.6907 19.8067 57.024 19.5733 57.304 19.28C57.584 18.9867 57.804 18.6467 57.964 18.26C58.124 17.86 58.204 17.4333 58.204 16.98C58.204 16.54 58.124 16.1267 57.964 15.74C57.804 15.34 57.584 14.9933 57.304 14.7C57.024 14.4067 56.6907 14.1733 56.304 14C55.9173 13.8267 55.4973 13.74 55.044 13.74C54.604 13.74 54.1907 13.8267 53.804 14C53.4173 14.16 53.0773 14.3867 52.784 14.68C52.504 14.9733 52.284 15.32 52.124 15.72C51.964 16.1067 51.884 16.5267 51.884 16.98C51.884 17.4333 51.964 17.86 52.124 18.26C52.284 18.66 52.504 19.0067 52.784 19.3C53.0773 19.5933 53.4173 19.8267 53.804 20C54.1907 20.16 54.604 20.24 55.044 20.24ZM65.812 21.48L61.672 12H63.972L66.892 18.94L69.652 12H71.912L65.872 26.62H63.672L65.812 21.48ZM73.3266 12H75.4466V13.2C75.7666 12.76 76.1733 12.42 76.6666 12.18C77.1733 11.9267 77.7466 11.8 78.3866 11.8C79.1866 11.8 79.86 11.96 80.4066 12.28C80.9666 12.6 81.3933 13.04 81.6866 13.6C82.0333 13.04 82.4933 12.6 83.0666 12.28C83.6533 11.96 84.32 11.8 85.0666 11.8C86.4266 11.8 87.4533 12.18 88.1466 12.94C88.8533 13.7 89.2066 14.72 89.2066 16V22H87.0266V16.14C87.0266 15.38 86.8266 14.78 86.4266 14.34C86.04 13.8867 85.4666 13.66 84.7066 13.66C84.0266 13.66 83.46 13.8867 83.0066 14.34C82.5533 14.7933 82.3266 15.4667 82.3266 16.36V22H80.1666V16.04C80.1666 15.3067 79.9666 14.7267 79.5666 14.3C79.18 13.8733 78.6266 13.66 77.9066 13.66C77.2 13.66 76.6133 13.8933 76.1466 14.36C75.6933 14.8267 75.4666 15.52 75.4666 16.44V22H73.3266V12ZM96.0373 22.2C95.2506 22.2 94.5373 22.0667 93.8973 21.8C93.2573 21.52 92.7106 21.1467 92.2573 20.68C91.8173 20.2133 91.4773 19.6667 91.2373 19.04C90.9973 18.4133 90.8773 17.7467 90.8773 17.04C90.8773 16.3067 91.0106 15.62 91.2773 14.98C91.5439 14.34 91.9039 13.7867 92.3573 13.32C92.8239 12.8533 93.3706 12.4867 93.9973 12.22C94.6373 11.94 95.3239 11.8 96.0573 11.8C96.7906 11.8 97.4706 11.9267 98.0973 12.18C98.7373 12.4333 99.2839 12.7933 99.7373 13.26C100.204 13.7133 100.564 14.2533 100.817 14.88C101.084 15.5067 101.217 16.1933 101.217 16.94V17.68H92.9173C93.0373 18.4533 93.3706 19.0933 93.9173 19.6C94.4639 20.0933 95.1773 20.34 96.0573 20.34C96.7506 20.34 97.3239 20.1867 97.7773 19.88C98.2439 19.5733 98.5706 19.16 98.7573 18.64H101.057C100.671 19.7467 100.057 20.62 99.2173 21.26C98.3906 21.8867 97.3306 22.2 96.0373 22.2ZM96.0773 13.7C95.3439 13.7 94.7106 13.9067 94.1773 14.32C93.6439 14.72 93.2706 15.24 93.0573 15.88H99.0373C98.8506 15.1733 98.4973 14.6333 97.9773 14.26C97.4706 13.8867 96.8373 13.7 96.0773 13.7ZM102.936 12H105.056V13.3C105.403 12.8333 105.836 12.4667 106.356 12.2C106.876 11.9333 107.469 11.8 108.136 11.8C109.403 11.8 110.396 12.1867 111.116 12.96C111.836 13.72 112.196 14.7867 112.196 16.16V22H110.036V16.34C110.036 15.5133 109.829 14.86 109.416 14.38C109.016 13.9 108.416 13.66 107.616 13.66C106.896 13.66 106.289 13.9133 105.796 14.42C105.316 14.9267 105.076 15.62 105.076 16.5V22H102.936V12ZM113.297 12H114.997V9.64L117.157 8.46V12H119.277V13.92H117.157V17.9C117.157 18.3533 117.177 18.72 117.217 19C117.271 19.2667 117.371 19.4733 117.517 19.62C117.677 19.7667 117.891 19.8667 118.157 19.92C118.437 19.96 118.811 19.98 119.277 19.98V22H118.957C118.197 22 117.564 21.9333 117.057 21.8C116.551 21.6667 116.144 21.4467 115.837 21.14C115.531 20.82 115.311 20.4 115.177 19.88C115.057 19.36 114.997 18.7067 114.997 17.92V13.92H113.297V12ZM131.253 22.2C130.533 22.2 129.86 22.0667 129.233 21.8C128.606 21.5333 128.053 21.1667 127.573 20.7C127.106 20.22 126.74 19.6667 126.473 19.04C126.206 18.4 126.073 17.72 126.073 17C126.073 16.2667 126.206 15.5867 126.473 14.96C126.74 14.32 127.106 13.7667 127.573 13.3C128.053 12.8333 128.606 12.4667 129.233 12.2C129.86 11.9333 130.533 11.8 131.253 11.8C131.973 11.8 132.646 11.9333 133.273 12.2C133.9 12.4667 134.446 12.8333 134.913 13.3C135.393 13.7667 135.766 14.32 136.033 14.96C136.3 15.5867 136.433 16.2667 136.433 17C136.433 17.72 136.3 18.4 136.033 19.04C135.766 19.6667 135.393 20.22 134.913 20.7C134.446 21.1667 133.9 21.5333 133.273 21.8C132.646 22.0667 131.973 22.2 131.253 22.2ZM131.253 20.2C131.68 20.2 132.08 20.12 132.453 19.96C132.826 19.7867 133.153 19.5533 133.433 19.26C133.713 18.9667 133.933 18.6267 134.093 18.24C134.253 17.8533 134.333 17.44 134.333 17C134.333 16.56 134.253 16.1467 134.093 15.76C133.933 15.3733 133.713 15.0333 133.433 14.74C133.153 14.4467 132.826 14.22 132.453 14.06C132.08 13.8867 131.68 13.8 131.253 13.8C130.813 13.8 130.406 13.8867 130.033 14.06C129.66 14.22 129.333 14.4467 129.053 14.74C128.786 15.0333 128.573 15.3733 128.413 15.76C128.266 16.1467 128.193 16.56 128.193 17C128.193 17.44 128.266 17.8533 128.413 18.24C128.573 18.6267 128.786 18.9667 129.053 19.26C129.333 19.5533 129.66 19.7867 130.033 19.96C130.406 20.12 130.813 20.2 131.253 20.2ZM138.151 12H140.271V13.3C140.618 12.8333 141.051 12.4667 141.571 12.2C142.091 11.9333 142.684 11.8 143.351 11.8C144.618 11.8 145.611 12.1867 146.331 12.96C147.051 13.72 147.411 14.7867 147.411 16.16V22H145.251V16.34C145.251 15.5133 145.044 14.86 144.631 14.38C144.231 13.9 143.631 13.66 142.831 13.66C142.111 13.66 141.504 13.9133 141.011 14.42C140.531 14.9267 140.291 15.62 140.291 16.5V22H138.151V12ZM62.0584 52.2C61.4184 52.2 60.7984 52.08 60.1984 51.84C59.6118 51.5867 59.0851 51.24 58.6184 50.8C58.1518 50.3467 57.7784 49.8 57.4984 49.16C57.2184 48.52 57.0784 47.8 57.0784 47C57.0784 46.2 57.2118 45.48 57.4784 44.84C57.7584 44.2 58.1251 43.6533 58.5784 43.2C59.0451 42.7467 59.5784 42.4 60.1784 42.16C60.7918 41.92 61.4251 41.8 62.0784 41.8C62.7451 41.8 63.3718 41.9333 63.9584 42.2C64.5451 42.4667 65.0251 42.8333 65.3984 43.3V37.4H67.5184V52H65.3984V50.62C65.0118 51.1133 64.5251 51.5 63.9384 51.78C63.3518 52.06 62.7251 52.2 62.0584 52.2ZM62.3584 50.24C62.8118 50.24 63.2318 50.1533 63.6184 49.98C64.0051 49.8067 64.3384 49.5733 64.6184 49.28C64.8984 48.9867 65.1184 48.6467 65.2784 48.26C65.4384 47.86 65.5184 47.4333 65.5184 46.98C65.5184 46.54 65.4384 46.1267 65.2784 45.74C65.1184 45.34 64.8984 44.9933 64.6184 44.7C64.3384 44.4067 64.0051 44.1733 63.6184 44C63.2318 43.8267 62.8118 43.74 62.3584 43.74C61.9184 43.74 61.5051 43.8267 61.1184 44C60.7318 44.16 60.3918 44.3867 60.0984 44.68C59.8184 44.9733 59.5984 45.32 59.4384 45.72C59.2784 46.1067 59.1984 46.5267 59.1984 46.98C59.1984 47.4333 59.2784 47.86 59.4384 48.26C59.5984 48.66 59.8184 49.0067 60.0984 49.3C60.3918 49.5933 60.7318 49.8267 61.1184 50C61.5051 50.16 61.9184 50.24 62.3584 50.24ZM74.3869 52.2C73.6002 52.2 72.8869 52.0667 72.2469 51.8C71.6069 51.52 71.0602 51.1467 70.6069 50.68C70.1669 50.2133 69.8269 49.6667 69.5869 49.04C69.3469 48.4133 69.2269 47.7467 69.2269 47.04C69.2269 46.3067 69.3602 45.62 69.6269 44.98C69.8935 44.34 70.2535 43.7867 70.7069 43.32C71.1735 42.8533 71.7202 42.4867 72.3469 42.22C72.9869 41.94 73.6735 41.8 74.4069 41.8C75.1402 41.8 75.8202 41.9267 76.4469 42.18C77.0869 42.4333 77.6335 42.7933 78.0869 43.26C78.5535 43.7133 78.9135 44.2533 79.1669 44.88C79.4335 45.5067 79.5669 46.1933 79.5669 46.94V47.68H71.2669C71.3869 48.4533 71.7202 49.0933 72.2669 49.6C72.8135 50.0933 73.5269 50.34 74.4069 50.34C75.1002 50.34 75.6735 50.1867 76.1269 49.88C76.5935 49.5733 76.9202 49.16 77.1069 48.64H79.4069C79.0202 49.7467 78.4069 50.62 77.5669 51.26C76.7402 51.8867 75.6802 52.2 74.3869 52.2ZM74.4269 43.7C73.6935 43.7 73.0602 43.9067 72.5269 44.32C71.9935 44.72 71.6202 45.24 71.4069 45.88H77.3869C77.2002 45.1733 76.8469 44.6333 76.3269 44.26C75.8202 43.8867 75.1869 43.7 74.4269 43.7ZM81.3056 37.4H83.4456V52H81.3056V37.4ZM85.602 42H87.762V52H85.602V42ZM85.242 39.02C85.242 38.5933 85.3754 38.2467 85.642 37.98C85.9087 37.7133 86.2554 37.58 86.682 37.58C87.1087 37.58 87.4554 37.7133 87.722 37.98C87.9887 38.2467 88.122 38.5933 88.122 39.02C88.122 39.4467 87.9887 39.7933 87.722 40.06C87.4554 40.3267 87.1087 40.46 86.682 40.46C86.2554 40.46 85.9087 40.3267 85.642 40.06C85.3754 39.7933 85.242 39.4467 85.242 39.02ZM89.2413 42H91.4813L94.1613 49.24L96.8013 42H99.0013L95.2213 52H93.0813L89.2413 42ZM104.66 52.2C103.874 52.2 103.16 52.0667 102.52 51.8C101.88 51.52 101.334 51.1467 100.88 50.68C100.44 50.2133 100.1 49.6667 99.8603 49.04C99.6203 48.4133 99.5003 47.7467 99.5003 47.04C99.5003 46.3067 99.6336 45.62 99.9003 44.98C100.167 44.34 100.527 43.7867 100.98 43.32C101.447 42.8533 101.994 42.4867 102.62 42.22C103.26 41.94 103.947 41.8 104.68 41.8C105.414 41.8 106.094 41.9267 106.72 42.18C107.36 42.4333 107.907 42.7933 108.36 43.26C108.827 43.7133 109.187 44.2533 109.44 44.88C109.707 45.5067 109.84 46.1933 109.84 46.94V47.68H101.54C101.66 48.4533 101.994 49.0933 102.54 49.6C103.087 50.0933 103.8 50.34 104.68 50.34C105.374 50.34 105.947 50.1867 106.4 49.88C106.867 49.5733 107.194 49.16 107.38 48.64H109.68C109.294 49.7467 108.68 50.62 107.84 51.26C107.014 51.8867 105.954 52.2 104.66 52.2ZM104.7 43.7C103.967 43.7 103.334 43.9067 102.8 44.32C102.267 44.72 101.894 45.24 101.68 45.88H107.66C107.474 45.1733 107.12 44.6333 106.6 44.26C106.094 43.8867 105.46 43.7 104.7 43.7ZM111.559 42H113.699V43.54C113.966 43.0467 114.326 42.6667 114.779 42.4C115.232 42.1333 115.792 42 116.459 42H117.639V44.04H116.139C115.259 44.04 114.632 44.28 114.259 44.76C113.899 45.24 113.719 46 113.719 47.04V52H111.559V42ZM123.048 51.48L118.908 42H121.208L124.128 48.94L126.888 42H129.148L123.108 56.62H120.908L123.048 51.48Z" fill="currentColor">
</svg>
